# xmcd CD database file
#
# Track frame offsets:
#	150
#	19390
#	41612
#	59177
#	88790
#	120720
#	132820
#	136780
#	147382
#	162832
#	197642
#	218600
#	230417
#	242837
#	255417
#
# Disc length: 3597 seconds
#
# Revision: 0
# Processed by: cddbd v1.4b41PL1 Copyright (c) Steve Scherf et al.
# Submitted via: Feurio! 1.61 - http://www.feurio.com
#
DISCID=d80e0b0f
DTITLE=James Brown - Live
DYEAR=1900
DGENRE=
TTITLE0=Living in America
TTITLE1=Work Harder
TTITLE2=Gonna Have A Funky Good Time
TTITLE3=It's A Man's Man's Man's World
TTITLE4=Sweet Little Angel
TTITLE5=Get Up Offa That Thing (Screamin')
TTITLE6=Try Me
TTITLE7=Get On The Good Foot
TTITLE8=Hit Me
TTITLE9=Medley: a) Prisoner Of Love b) Georgia on my Mind
TTITLE10=Medley: a) Cold Sweat b) Hot Pants
TTITLE11=Papa's Got A Brand New Bag
TTITLE12=I Feel Good
TTITLE13=Please, Please, Please
TTITLE14=Sex Machine
EXTD=
EXTT0=
EXTT1=
EXTT2=
EXTT3=
EXTT4=
EXTT5=
EXTT6=
EXTT7=
EXTT8=
EXTT9=
EXTT10=
EXTT11=
EXTT12=
EXTT13=
EXTT14=
PLAYORDER=
